<?xml version="1.0" encoding="UTF-8"?>
<svg width="792px" height="141px" viewBox="0 0 792 141" version="1.1" xmlns="http://www.w3.org/2000/svg" xmlns:xlink="http://www.w3.org/1999/xlink">
    <!-- Generator: Sketch 60 (88103) - https://sketch.com -->
    <title>doc_logo_white</title>
    <desc>Created with Sketch.</desc>
    <g id="doc_logo_white" stroke="none" stroke-width="1" fill="none" fill-rule="evenodd">
        <g id="Group" transform="translate(0.000000, -19.000000)">
            <path d="M234.76,123 L234.76,89.34 C234.76,84.5733333 235.988333,80.925 238.445,78.395 C240.901667,75.865 244.22,74.6 248.4,74.6 C252.58,74.6 255.88,75.865 258.3,78.395 C260.72,80.925 261.93,84.5733333 261.93,89.34 L261.93,89.34 L261.93,123 L277.33,123 L277.33,89.34 C277.33,84.5733333 278.558333,80.925 281.015,78.395 C283.471667,75.865 286.79,74.6 290.97,74.6 C295.15,74.6 298.45,75.865 300.87,78.395 C303.29,80.925 304.5,84.5733333 304.5,89.34 L304.5,89.34 L304.5,123 L319.9,123 L319.9,87.14 C319.9,78.9266667 317.681667,72.5466667 313.245,68 C308.808333,63.4533333 302.96,61.18 295.7,61.18 C291.08,61.18 286.918333,62.28 283.215,64.48 C279.511667,66.68 276.596667,69.6866667 274.47,73.5 C272.49,69.54 269.685,66.4966667 266.055,64.37 C262.425,62.2433333 258.3,61.18 253.68,61.18 C244.953333,61.18 238.646667,64.5166667 234.76,71.19 L234.76,71.19 L234.76,62.06 L219.25,62.06 L219.25,123 L234.76,123 Z M362.91,123.88 C371.856667,123.88 379.355,120.983333 385.405,115.19 C391.455,109.396667 394.48,101.806667 394.48,92.42 C394.48,83.0333333 391.473333,75.48 385.46,69.76 C379.446667,64.04 371.985,61.18 363.075,61.18 C354.165,61.18 346.703333,64.04 340.69,69.76 C334.676667,75.48 331.67,83.0333333 331.67,92.42 C331.67,101.806667 334.64,109.396667 340.58,115.19 C346.52,120.983333 353.963333,123.88 362.91,123.88 Z M362.91,110.79 C358.583333,110.79 354.916667,109.213333 351.91,106.06 C348.903333,102.906667 347.4,98.3966667 347.4,92.53 C347.4,86.6633333 348.903333,82.1533333 351.91,79 C354.916667,75.8466667 358.601667,74.27 362.965,74.27 C367.328333,74.27 371.05,75.8466667 374.13,79 C377.21,82.1533333 378.75,86.645 378.75,92.475 C378.75,98.305 377.191667,102.815 374.075,106.005 C370.958333,109.195 367.236667,110.79 362.91,110.79 Z M422.31,123 L422.31,89.34 C422.31,84.5733333 423.538333,80.925 425.995,78.395 C428.451667,75.865 431.77,74.6 435.95,74.6 C440.13,74.6 443.43,75.865 445.85,78.395 C448.27,80.925 449.48,84.5733333 449.48,89.34 L449.48,89.34 L449.48,123 L464.88,123 L464.88,87.14 C464.88,79 462.68,72.6383333 458.28,68.055 C453.88,63.4716667 448.196667,61.18 441.23,61.18 C432.503333,61.18 426.196667,64.5166667 422.31,71.19 L422.31,71.19 L422.31,62.06 L406.8,62.06 L406.8,123 L422.31,123 Z M507.89,123.88 C516.836667,123.88 524.335,120.983333 530.385,115.19 C536.435,109.396667 539.46,101.806667 539.46,92.42 C539.46,83.0333333 536.453333,75.48 530.44,69.76 C524.426667,64.04 516.965,61.18 508.055,61.18 C499.145,61.18 491.683333,64.04 485.67,69.76 C479.656667,75.48 476.65,83.0333333 476.65,92.42 C476.65,101.806667 479.62,109.396667 485.56,115.19 C491.5,120.983333 498.943333,123.88 507.89,123.88 Z M507.89,110.79 C503.563333,110.79 499.896667,109.213333 496.89,106.06 C493.883333,102.906667 492.38,98.3966667 492.38,92.53 C492.38,86.6633333 493.883333,82.1533333 496.89,79 C499.896667,75.8466667 503.581667,74.27 507.945,74.27 C512.308333,74.27 516.03,75.8466667 519.11,79 C522.19,82.1533333 523.73,86.645 523.73,92.475 C523.73,98.305 522.171667,102.815 519.055,106.005 C515.938333,109.195 512.216667,110.79 507.89,110.79 Z M568.17,123 L568.17,74.71 L577.85,74.71 L577.85,62.06 L568.17,62.06 L568.17,58.65 C568.17,55.7166667 568.83,53.6266667 570.15,52.38 C571.47,51.1333333 573.743333,50.51 576.97,50.51 L576.97,50.51 L576.97,37.53 C568.61,37.53 562.486667,39.2166667 558.6,42.59 C554.713333,45.9633333 552.77,51.3166667 552.77,58.65 L552.77,58.65 L552.77,62.06 L546.17,62.06 L546.17,74.71 L552.77,74.71 L552.77,123 L568.17,123 Z M615.58,123.88 C624.526667,123.88 632.025,120.983333 638.075,115.19 C644.125,109.396667 647.15,101.806667 647.15,92.42 C647.15,83.0333333 644.143333,75.48 638.13,69.76 C632.116667,64.04 624.655,61.18 615.745,61.18 C606.835,61.18 599.373333,64.04 593.36,69.76 C587.346667,75.48 584.34,83.0333333 584.34,92.42 C584.34,101.806667 587.31,109.396667 593.25,115.19 C599.19,120.983333 606.633333,123.88 615.58,123.88 Z M615.58,110.79 C611.253333,110.79 607.586667,109.213333 604.58,106.06 C601.573333,102.906667 600.07,98.3966667 600.07,92.53 C600.07,86.6633333 601.573333,82.1533333 604.58,79 C607.586667,75.8466667 611.271667,74.27 615.635,74.27 C619.998333,74.27 623.72,75.8466667 626.8,79 C629.88,82.1533333 631.42,86.645 631.42,92.475 C631.42,98.305 629.861667,102.815 626.745,106.005 C623.628333,109.195 619.906667,110.79 615.58,110.79 Z M674.98,123 L674.98,89.34 C674.98,84.5733333 676.208333,80.925 678.665,78.395 C681.121667,75.865 684.44,74.6 688.62,74.6 C692.8,74.6 696.1,75.865 698.52,78.395 C700.94,80.925 702.15,84.5733333 702.15,89.34 L702.15,89.34 L702.15,123 L717.55,123 L717.55,87.14 C717.55,79 715.35,72.6383333 710.95,68.055 C706.55,63.4716667 700.866667,61.18 693.9,61.18 C685.173333,61.18 678.866667,64.5166667 674.98,71.19 L674.98,71.19 L674.98,62.06 L659.47,62.06 L659.47,123 L674.98,123 Z M753.41,151.82 L791.47,62.06 L775.3,62.06 L758.91,105.4 L743.4,62.06 L726.02,62.06 L749.89,121.9 L737.24,151.82 L753.41,151.82 Z" id="monofony" fill="#FFFFFF" fill-rule="nonzero"></path>
            <path d="M67.5521216,23.2015922 C80.0490427,17.2950715 95.6592318,20.0071001 103.997821,25.5737035 C107.955179,28.2089766 113.688416,32.9751295 118.011181,40.4204158 C118.318123,40.9503944 118.756611,41.4109276 119.282798,41.7179497 L119.282798,41.7179497 L126.17072,45.7896477 C128.275465,47.0323563 129.766326,49.017035 130.372902,51.3781812 C130.983131,53.7429825 130.635995,56.1991595 129.393611,58.304454 C128.72857,59.4338567 127.840631,60.3878183 126.766334,61.1444085 L126.766334,61.1444085 L124.025781,63.0596417 C124.150019,71.7878418 122.213362,82.1644583 116.958809,94.4270678 C110.717656,108.992343 97.7566683,122.223534 79.7201763,128.455352 C78.2329696,128.970711 77.2061758,130.334035 77.2061758,131.905696 L77.2061758,131.905696 L77.2061758,148.916183 L82.6872816,148.916183 C85.716506,148.916183 88.1683873,151.368705 88.1683873,154.398721 C88.1683873,157.425082 85.716506,159.881259 82.6872816,159.881259 L82.6872816,159.881259 L42.4925061,159.881259 C39.4632817,159.881259 37.0114004,157.425082 37.0114004,154.398721 C37.0114004,151.368705 39.4632817,148.916183 42.4925061,148.916183 L42.4925061,148.916183 L47.9736119,148.916183 L47.9736119,132.46857 C47.9736119,132.201753 48.0138067,131.949556 48.0503474,131.69736 C42.6057823,131.1089 36.9492812,130.016048 31.0406492,128.221431 C30.5765823,128.07523 30.1563641,127.863238 29.7653786,127.618351 C23.1624732,129.683441 16.2964748,130.768983 9.60587169,130.768983 C8.25751968,130.768983 6.92012988,130.725123 5.58639415,130.637402 C5.05289985,130.600852 4.5522922,130.465616 4.07360896,130.290175 C4.01148976,130.268245 3.95302463,130.242659 3.88725137,130.217074 C3.33183265,129.990463 2.82391685,129.683441 2.37812025,129.292353 C2.32696327,129.252148 2.28676849,129.204632 2.2356115,129.160772 C1.80077711,128.755064 1.42440785,128.287221 1.13939035,127.764552 C1.11015779,127.706072 1.09188744,127.647592 1.06265487,127.596421 C0.784945517,127.037202 0.59127978,126.441433 0.51819837,125.805459 C0.5145443,125.787184 0.507236159,125.779874 0.503582088,125.765254 C-1.46961598,107.994521 2.3963906,90.5015707 11.3890581,76.5101344 C19.7641877,63.4836246 31.9687831,54.8139049 46.1977336,51.487832 C47.6337833,51.1552247 48.7263504,50.029477 49.0369464,48.585742 C52.2854151,33.4977981 60.6568906,26.4655296 67.5521216,23.2015922 Z M66.2439643,131.584054 C63.8615104,131.894731 61.4132832,132.077482 58.9029367,132.154238 C58.9102449,132.260233 58.9358234,132.358919 58.9358234,132.46857 L58.9358234,132.46857 L58.9358234,148.916183 L66.2439643,148.916183 Z M97.9174474,34.6966463 C93.0611877,31.458294 81.5435575,28.7133701 72.23664,33.1176755 C64.566746,36.7434604 60.0795474,44.5323191 58.9102449,56.2649499 C58.8992827,56.3709456 58.862742,56.4696313 58.8481257,56.571972 C58.8042768,56.8241688 58.7677361,57.0836755 58.6946547,57.3212522 C58.6508059,57.4528331 58.5886867,57.5697939 58.5411837,57.6977198 C58.4607942,57.9024012 58.3840587,58.1143926 58.2780907,58.311764 C58.2050093,58.4469999 58.1100034,58.5676158 58.0259598,58.6955416 C57.9199918,58.8600178 57.8176778,59.031804 57.6934394,59.185315 C57.5765091,59.331516 57.4376545,59.4521319 57.3061079,59.5837128 C57.1928317,59.6970185 57.0868637,59.8249444 56.9626253,59.9272851 C56.7616514,60.0954163 56.5424072,60.2343072 56.3195089,60.3731982 C56.2500815,60.4207135 56.1843083,60.4718839 56.1112269,60.5120892 C55.4608023,60.8775917 54.7409504,61.1151683 53.9772497,61.1846138 C36.4267491,63.1656374 26.1441947,73.8310009 20.611932,82.4385852 C13.8811342,92.9102323 10.5120812,106.29128 11.0674999,119.771012 C32.3013035,119.189863 55.96141,105.377523 58.9906344,84.1856872 C59.4181607,81.1849116 62.2171787,79.1307874 65.191592,79.5291852 C68.1879299,79.9568231 70.27075,82.7346422 69.8432238,85.7317629 C67.7129007,100.644266 58.1648145,112.493857 45.6678934,120.300991 C76.643449,125.092729 98.7724999,109.032548 106.880882,90.110483 C109.928377,82.9978041 111.64579,76.7404009 112.460648,71.1591775 C112.942985,67.8733099 113.085494,64.843294 112.96491,62.0435447 C112.895482,60.4389887 113.578794,58.896568 114.894259,57.9718467 L114.894259,57.9718467 L118.921045,55.1538223 C119.136635,55.0039662 119.31203,54.8139049 119.447231,54.5872933 C119.703016,54.1523454 119.757827,53.6552619 119.644551,53.2020388 C119.586085,52.9754272 119.483771,52.7597808 119.341263,52.5660644 C119.202408,52.3796581 119.019704,52.211527 118.80046,52.0836011 L118.80046,52.0836011 L110.513028,47.1895224 C109.234104,46.4329322 108.196348,45.3400796 107.370528,44.1010261 C105.375405,41.1039055 103.066033,38.713519 100.796855,36.8531112 C99.817564,36.0526607 98.8455813,35.3143456 97.9174474,34.6966463 Z M95.4765283,48.4088388 C98.5020987,48.4088388 100.957634,50.8650157 100.957634,53.8913766 C100.957634,56.9177374 98.5020987,59.3739143 95.4765283,59.3739143 C92.4473039,59.3739143 89.9954226,56.9177374 89.9954226,53.8913766 C89.9954226,50.8650157 92.4473039,48.4088388 95.4765283,48.4088388 Z" id="Combined-Shape-Copy" fill="#4BAEB4"></path>
        </g>
    </g>
</svg>